<svg xmlns="http://www.w3.org/2000/svg" width="900" height="675" viewBox="0 0 900 675">
  <defs>
    <linearGradient id="g" x1="0" x2="1" y1="0" y2="1"><stop offset="0" stop-color="#6941c6"/><stop offset="1" stop-color="#175cd3"/></linearGradient>
    <filter id="s" x="-20%" y="-20%" width="140%" height="140%"><feDropShadow dx="0" dy="22" stdDeviation="20" flood-opacity=".22"/></filter>
  </defs>
  <rect width="900" height="675" rx="42" fill="url(#g)"/>
  <circle cx="730" cy="120" r="170" fill="rgba(255,255,255,.22)"/>
  <circle cx="130" cy="610" r="210" fill="rgba(255,255,255,.16)"/>
  <rect x="190" y="250" width="520" height="210" rx="30" fill="#fff" filter="url(#s)"/><g fill="#e4e7ec"><rect x="230" y="292" width="54" height="34" rx="8"/><rect x="300" y="292" width="54" height="34" rx="8"/><rect x="370" y="292" width="54" height="34" rx="8"/><rect x="440" y="292" width="54" height="34" rx="8"/><rect x="510" y="292" width="54" height="34" rx="8"/><rect x="580" y="292" width="54" height="34" rx="8"/><rect x="250" y="354" width="340" height="40" rx="10"/></g>
  <text x="70" y="600" font-family="Inter,Arial,sans-serif" font-size="42" font-weight="800" fill="white">Clavier Pro</text>
</svg>